C:\Users\israe\Dropbox\PhDWork\ExperimentalData\subject9\145\P9S145W05_filtered35.mot
nRows=16
nColumns=28

name C:\Users\israe\Dropbox\PhDWork\ExperimentalData\subject9\145\P9S145W05_filtered35.mot
datacolumns 28
datarows 16
range 1.6870000000 1.7020000000
endheader
time	ground_force_1_vx	ground_force_1_vy	ground_force_1_vz	ground_force_1_px	ground_force_1_py	ground_force_1_pz	ground_moment_1_mx	ground_moment_1_my	ground_moment_1_mz	ground_force_2_vx	ground_force_2_vy	ground_force_2_vz	ground_force_2_px	ground_force_2_py	ground_force_2_pz	ground_moment_2_mx	ground_moment_2_my	ground_moment_2_mz	ground_force_3_vx	ground_force_3_vy	ground_force_3_vz	ground_force_3_px	ground_force_3_py	ground_force_3_pz	ground_moment_3_mx	ground_moment_3_my	ground_moment_3_mz
        1.6870000000	       -0.0000000000	        0.0000000000	       -0.0000000000	        0.1988394961	        0.0000558755	       -0.3004071324	       -0.0000000000	       -0.0000000000	        0.0000000000	       -0.0000000000	        0.0000000000	        0.0000000000	        0.2029003516	       -0.0000795827	        0.4543649445	        0.0000000000	        0.0000000000	        0.0000000000	       -0.0038250708	        0.0163335981	       -0.0096663603	        0.2076431971	        0.0000770316	        1.3583900146	       -0.0007746958	        0.0004789099	        0.0009056536	
        1.6880000000	       -0.0000000000	        0.0000000000	       -0.0000000000	        0.1988394961	        0.0000558755	       -0.3004071324	       -0.0000000000	       -0.0000000000	        0.0000000000	       -0.0000000000	        0.0000000000	        0.0000000000	        0.2029003516	       -0.0000795827	        0.4543649445	        0.0000000000	        0.0000000000	        0.0000000000	       -0.0026349524	        0.0105773380	       -0.0065152812	        0.2076431971	        0.0000770316	        1.3583900146	       -0.0005268437	        0.0003049433	        0.0005444975	
        1.6890000000	       -0.0000000000	        0.0000000000	       -0.0000000000	        0.1988394961	        0.0000558755	       -0.3004071324	       -0.0000000000	       -0.0000000000	        0.0000000000	       -0.0000000000	        0.0000000000	        0.0000000000	        0.2029003516	       -0.0000795827	        0.4543649445	        0.0000000000	        0.0000000000	        0.0000000000	       -0.0016620983	        0.0060077520	       -0.0039683650	        0.2076431971	        0.0000770316	        1.3583900146	       -0.0003256117	        0.0001677635	        0.0002652623	
        1.6900000000	       -0.0000000000	        0.0000000000	       -0.0000000000	        0.1988394961	        0.0000558755	       -0.3004071324	       -0.0000000000	       -0.0000000000	        0.0000000000	       -0.0000000000	        0.0000000000	        0.0000000000	        0.2029003516	       -0.0000795827	        0.4543649445	        0.0000000000	        0.0000000000	        0.0000000000	       -0.0008976710	        0.0025299372	       -0.0019911105	        0.2076431971	        0.0000770316	        1.3583900146	       -0.0001686322	        0.0000641480	        0.0000591262	
        1.6910000000	       -0.0000000000	        0.0000000000	       -0.0000000000	        0.1988394961	        0.0000558755	       -0.3004071324	       -0.0000000000	       -0.0000000000	        0.0000000000	       -0.0000000000	        0.0000000000	        0.0000000000	        0.2029003516	       -0.0000795827	        0.4543649445	        0.0000000000	        0.0000000000	        0.0000000000	       -0.0003226093	        0.0000110575	       -0.0005243983	        0.2076431971	        0.0000770316	        1.3583900146	       -0.0000515246	       -0.0000101940	       -0.0000844795	
        1.6920000000	        0.0000000000	        0.0000000000	       -0.0000000000	        0.1988394961	        0.0000558755	       -0.3004071324	       -0.0000000000	       -0.0000000000	        0.0000000000	       -0.0000000000	        0.0000000000	        0.0000000000	        0.2029003516	       -0.0000795827	        0.4543649445	        0.0000000000	        0.0000000000	        0.0000000000	        0.0000878918	        0.0000000000	        0.0005038931	        0.2076431971	        0.0000770316	        1.3583900146	        0.0000311830	       -0.0000600093	       -0.0001766466	
        1.6930000000	        0.0000000000	        0.0000000000	        0.0000000000	        0.1988394961	        0.0000558755	       -0.3004071324	        0.0000000000	       -0.0000000000	       -0.0000000000	       -0.0000000000	        0.0000000000	        0.0000000000	        0.2029003516	       -0.0000795827	        0.4543649445	        0.0000000000	        0.0000000000	        0.0000000000	        0.0003609809	        0.0000000000	        0.0011701892	        0.2076431971	        0.0000770316	        1.3583900146	        0.0000853604	       -0.0000900567	       -0.0002281269	
        1.6940000000	        0.0000000000	        0.0000000000	        0.0000000000	        0.1988394961	        0.0000558755	       -0.3004071324	        0.0000000000	       -0.0000000000	       -0.0000000000	       -0.0000000000	        0.0000000000	        0.0000000000	        0.2029003516	       -0.0000795827	        0.4543649445	        0.0000000000	        0.0000000000	        0.0000000000	        0.0005236955	        0.0000000000	        0.0015490467	        0.2076431971	        0.0000770316	        1.3583900146	        0.0001167793	       -0.0001048048	       -0.0002487673	
        1.6950000000	        0.0000000000	        0.0000000000	        0.0000000000	        0.1988394961	        0.0000558755	       -0.3004071324	        0.0000000000	       -0.0000000000	       -0.0000000000	        0.0000000000	        0.0000000000	        0.0000000000	        0.2029003516	       -0.0000795827	        0.4543649445	        0.0000000000	        0.0000000000	        0.0000000000	        0.0006013032	        0.0000000000	        0.0017090810	        0.2076431971	        0.0000770316	        1.3583900146	        0.0001307834	       -0.0001082453	       -0.0002471839	
        1.6960000000	        0.0000000000	        0.0000000000	        0.0000000000	        0.1988394961	        0.0000558755	       -0.3004071324	        0.0000000000	        0.0000000000	       -0.0000000000	        0.0000000000	        0.0000000000	        0.0000000000	        0.2029003516	       -0.0000795827	        0.4543649445	       -0.0000000000	        0.0000000000	       -0.0000000000	        0.0006162866	        0.0000000000	        0.0017105747	        0.2076431971	        0.0000770316	        1.3583900146	        0.0001320907	       -0.0001037959	       -0.0002306168	
        1.6970000000	        0.0000000000	        0.0000000000	        0.0000000000	        0.1988394961	        0.0000558755	       -0.3004071324	        0.0000000000	        0.0000000000	       -0.0000000000	        0.0000000000	        0.0000000000	        0.0000000000	        0.2029003516	       -0.0000795827	        0.4543649445	       -0.0000000000	        0.0000000000	       -0.0000000000	        0.0005878293	        0.0000000000	        0.0016043769	        0.2076431971	        0.0000770316	        1.3583900146	        0.0001246990	       -0.0000942707	       -0.0002049189	
        1.6980000000	        0.0000000000	        0.0000000000	        0.0000000000	        0.1988394961	        0.0000558755	       -0.3004071324	        0.0000000000	        0.0000000000	       -0.0000000000	        0.0000000000	        0.0000000000	       -0.0000000000	        0.2029003516	       -0.0000795827	        0.4543649445	       -0.0000000000	       -0.0000000000	       -0.0000000000	        0.0005316733	        0.0000000000	        0.0014317472	        0.2076431971	        0.0000770316	        1.3583900146	        0.0001118669	       -0.0000818977	       -0.0001746350	
        1.6990000000	        0.0000000000	        0.0000000000	        0.0000000000	        0.1988394961	        0.0000558755	       -0.3004071324	        0.0000000000	        0.0000000000	       -0.0000000000	        0.0000000000	        0.0000000000	       -0.0000000000	        0.2029003516	       -0.0000795827	        0.4543649445	       -0.0000000000	       -0.0000000000	       -0.0000000000	        0.0004602385	        0.0000000000	        0.0012248515	        0.2076431971	        0.0000770316	        1.3583900146	        0.0000961466	       -0.0000683674	       -0.0001431366	
        1.7000000000	        0.0000000000	        0.0000000000	        0.0000000000	        0.1988394961	        0.0000558755	       -0.3004071324	        0.0000000000	        0.0000000000	       -0.0000000000	        0.0000000000	        0.0000000000	       -0.0000000000	        0.2029003516	       -0.0000795827	        0.4543649445	       -0.0000000000	       -0.0000000000	       -0.0000000000	        0.0003829115	        0.0000000000	        0.0010076676	        0.2076431971	        0.0000770316	        1.3583900146	        0.0000794516	       -0.0000548998	       -0.0001127881	
        1.7010000000	        0.0000000000	        0.0000000000	        0.0000000000	        0.1988394961	        0.0000558755	       -0.3004071324	        0.0000000000	        0.0000000000	       -0.0000000000	        0.0000000000	        0.0000000000	       -0.0000000000	        0.2029003516	       -0.0000795827	        0.4543649445	       -0.0000000000	       -0.0000000000	       -0.0000000000	        0.0003064321	        0.0000000000	        0.0007971135	        0.2076431971	        0.0000770316	        1.3583900146	        0.0000631414	       -0.0000423187	       -0.0000851222	
        1.7020000000	        0.0000000000	        0.0000000000	        0.0000000000	        0.1988394961	        0.0000558755	       -0.3004071324	        0.0000000000	        0.0000000000	       -0.0000000000	        0.0000000000	        0.0000000000	       -0.0000000000	        0.2029003516	       -0.0000795827	        0.4543649445	       -0.0000000000	       -0.0000000000	       -0.0000000000	        0.0002353214	        0.0000000000	        0.0006042554	        0.2076431971	        0.0000770316	        1.3583900146	        0.0000481146	       -0.0000311278	       -0.0000610109	
